HIERARCHY
ROOT Hips
{
     OFFSET 1.88212 96.90440 -13.34250
     CHANNELS 6 Xposition Yposition Zposition Zrotation Xrotation Yrotation
     JOINT Spine
     {
          OFFSET 0.00000 11.89050 0.00000
          CHANNELS 3 Zrotation Xrotation Yrotation
          JOINT Spine1
          {
               OFFSET -0.00000 25.65740 0.12766
               CHANNELS 3 Zrotation Xrotation Yrotation
               JOINT HEad
               {
                    OFFSET 0.00000 8.73416 0.01134
                    CHANNELS 3 Zrotation Xrotation Yrotation
                    End Site
                    {
                         OFFSET -0.29000 12.77420 2.51395
                    }
               }
               JOINT LeftShoulder1
               {
                    OFFSET 8.99000 -0.36225 -0.22000
                    CHANNELS 3 Zrotation Xrotation Yrotation
                    JOINT LeftArm
                    {
                         OFFSET 10.28270 -0.00338 0.32212
                         CHANNELS 3 Zrotation Xrotation Yrotation
                         JOINT LeftForeArm
                         {
                              OFFSET 32.76690 0.09914 -1.42434
                              CHANNELS 3 Zrotation Xrotation Yrotation
                              JOINT LeftHand
                              {
                                   OFFSET 27.56430 0.08536 1.02216
                                   CHANNELS 3 Zrotation Xrotation Yrotation
                                   End Site
                                   {
                                        OFFSET 16.74430 -0.60000 1.50291
                                   }
                              }
                         }
                    }
               }
               JOINT RightShoulder
               {
                    OFFSET -8.99000 -0.36225 -0.22000
                    CHANNELS 3 Zrotation Xrotation Yrotation
                    JOINT RightArm
                    {
                         OFFSET -10.28270 -0.00338 0.32212
                         CHANNELS 3 Zrotation Xrotation Yrotation
                         JOINT RightForeArm
                         {
                              OFFSET -32.89710 0.09914 -1.42434
                              CHANNELS 3 Zrotation Xrotation Yrotation
                              JOINT RightHand
                              {
                                   OFFSET -27.49210 0.08536 1.02216
                                   CHANNELS 3 Zrotation Xrotation Yrotation
                                   End Site
                                   {
                                        OFFSET -16.63120 -0.60000 1.50291
                                   }
                              }
                         }
                    }
               }
          }
     }
     JOINT LeftUpLeg
     {
          OFFSET 8.94580 -8.66707 0.10165
          CHANNELS 3 Zrotation Xrotation Yrotation
          JOINT LeftLeg
          {
               OFFSET 0.00000 -44.42270 1.37270
               CHANNELS 3 Zrotation Xrotation Yrotation
               JOINT LeftFoot
               {
                    OFFSET -0.25355 -42.09240 -1.46059
                    CHANNELS 3 Zrotation Xrotation Yrotation
                    JOINT LeftToes
                    {
                         OFFSET -0.04000 -4.41509 8.49910
                         CHANNELS 3 Zrotation Xrotation Yrotation
                         End Site
                         {
                              OFFSET 0.08000 -0.04745 9.77979
                         }
                    }
               }
          }
     }
     JOINT RightUpLeg
     {
          OFFSET -8.94580 -8.66707 0.10165
          CHANNELS 3 Zrotation Xrotation Yrotation
          JOINT RightLeg
          {
               OFFSET 0.00000 -44.42270 1.37270
               CHANNELS 3 Zrotation Xrotation Yrotation
               JOINT RightFoot
               {
                    OFFSET 0.25355 -42.09240 -1.46059
                    CHANNELS 3 Zrotation Xrotation Yrotation
                    JOINT RightToes
                    {
                         OFFSET 0.04000 -4.41509 8.49910
                         CHANNELS 3 Zrotation Xrotation Yrotation
                         End Site
                         {
                              OFFSET -0.08000 -0.13745 9.77979
                         }
                    }
               }
          }
     }
}
MOTION
Frames: 15
Frame Time: 0.01667
45.41058 94.16646 -118.88274 1.33829 -1.58400 -19.86456 7.13646 14.49232 2.09165 -0.01229 0.09814 -0.01267 -21.78454 18.07287 16.04455 -3.62509 18.73998 0.01757 -137.33147 -60.52951 -112.04424 -65.08152 59.75399 -77.65553 3.16207 3.36151 5.66815 4.01358 19.97970 0.43793 84.11414 -18.31846 94.05383 29.91951 46.57351 97.27269 -6.93361 5.30692 -1.94187 0.33227 -21.10495 19.65735 22.91091 18.97977 -29.93954 -23.54117 0.08763 0.01053 4.10923 -5.39244 3.22138 -17.57308 -4.94799 5.45553 2.06762 17.36696 0.41353 -2.08149 -0.03117 -0.03144 11.61861 -14.59156 -3.62044 
45.72288 93.07258 -119.50134 1.46151 -2.04820 -19.90491 6.79734 18.70965 2.08707 -0.01519 0.08644 -0.01694 -21.18574 14.41960 14.37946 -3.90400 16.45898 -0.09018 -129.12045 -62.21587 -103.53158 -63.40318 59.65232 -80.31783 6.77121 9.43772 1.25524 3.57925 17.62303 0.25506 84.71233 -17.83667 93.21320 36.42540 46.13503 91.71885 -5.62362 9.72745 0.38140 1.82479 -22.49373 19.51079 23.41550 21.52010 -28.52613 -4.20093 -0.34040 0.10036 -15.68455 -5.96550 1.47506 -18.05524 -7.17801 4.47768 2.57077 21.35428 0.75976 -4.64750 -0.01485 -0.03543 13.02326 -17.05544 -2.88660 
46.04472 91.57417 -120.45227 1.58013 -2.64625 -20.00094 6.06370 23.71300 2.08006 -0.01972 0.07853 -0.01901 -20.48449 9.98310 12.95484 -4.03569 13.65875 -0.08214 -123.66464 -62.94287 -97.98437 -62.32972 59.63010 -82.31961 5.64132 7.89050 1.56540 2.83811 14.75812 0.23075 84.65414 -16.51308 88.38091 35.48461 47.53476 94.47606 -4.97334 11.88915 1.26474 3.93841 -24.25852 18.72755 23.06111 24.88923 -26.63787 -11.41376 0.09046 -0.04136 -8.42822 -7.36027 0.04643 -18.72843 -10.28066 2.73463 2.67153 26.50127 2.01274 -7.14784 -0.01408 -0.03782 14.48476 -19.74966 -2.27437 
46.38411 89.76360 -121.68057 1.69206 -3.36068 -20.16142 4.91747 29.34375 2.15269 -0.02039 0.07200 -0.02018 -19.72147 4.89550 11.81612 -4.02809 10.44865 0.07104 -120.42057 -63.26848 -94.66573 -61.76268 59.74219 -83.80690 7.63429 10.66541 -0.30089 2.47974 11.51068 0.32352 84.78348 -15.52790 85.41020 34.74559 48.60960 96.82089 -10.93675 -2.66161 -8.97953 6.57336 -26.32570 17.37033 21.95836 28.82885 -24.14716 -7.92405 -0.05081 -0.00718 -11.52364 -8.01234 -1.06610 -19.64211 -14.12322 0.29054 2.22355 32.83186 4.20097 -9.69383 -0.01275 -0.04601 16.09776 -22.74582 -1.72772 
46.74934 87.70169 -123.12679 1.80513 -4.16464 -20.37870 3.30023 35.44874 2.41222 -0.02079 0.06682 -0.02063 -18.90087 -0.72737 10.97373 -3.85084 6.90708 0.36174 -118.71393 -63.41665 -92.76186 -61.53500 60.05048 -84.85966 6.89350 9.26599 0.37965 2.62124 7.96480 0.57816 84.77394 -14.82010 83.45161 34.07327 49.54431 98.91413 -5.19368 10.08874 -2.53035 9.60497 -28.61383 15.47554 19.83833 33.17832 -20.84517 -9.23638 0.01095 -0.00203 5.53169 -17.52657 2.21523 -20.87453 -18.60812 -2.82694 0.93496 40.25896 7.47411 -12.37308 -0.00858 -0.05732 17.78454 -26.13322 -1.23594 
47.13830 85.42627 -124.71866 1.93469 -5.01855 -20.62984 1.01804 41.47635 2.96459 -0.02512 0.06765 -0.01852 -17.90019 -6.43474 10.62875 -3.41012 3.47384 0.92641 -117.91631 -63.48579 -91.60404 -61.52875 60.47274 -85.65388 8.01572 10.61251 -0.31613 2.80155 4.54879 1.18733 82.83231 -13.80347 78.00797 34.96616 49.37437 98.98460 -7.60021 5.94229 -3.03582 12.93395 -31.01514 13.07843 16.21294 37.11551 -14.98643 5.37275 -0.37482 -0.06590 -17.63393 -11.55631 -2.67944 -22.54792 -23.64546 -6.62790 -1.72351 48.56543 12.21786 -15.23813 -0.00135 -0.06876 19.50637 -29.82462 -0.79429 
47.52585 82.97252 -126.35781 2.08378 -5.88873 -20.86957 -2.03036 47.36621 4.04324 -0.02736 0.06887 -0.01601 -16.69975 -12.16614 10.67243 -2.69361 0.12620 1.85477 -117.40582 -63.53451 -90.40852 -68.00056 58.71328 -77.86257 10.09423 -0.69123 10.61682 3.58200 1.26451 2.01359 81.40105 -13.13630 74.80572 35.22118 49.37537 99.89491 -4.00156 15.05629 2.12140 16.51789 -33.42551 10.22712 11.15543 41.12342 -8.47070 -2.33131 0.11690 -0.00274 -6.36489 -14.05297 -3.63027 -24.35734 -28.26544 -10.27589 -5.94771 56.41946 18.00599 -18.24642 0.00699 -0.07313 21.18274 -33.57730 -0.44142 
47.89403 80.38804 -127.93757 2.25678 -6.75096 -21.05854 -6.10252 53.04356 6.01664 -0.03199 0.06909 -0.01220 -15.24668 -17.86113 10.99626 -1.65902 -3.15277 2.98355 -116.91152 -63.60068 -88.99550 -71.42606 58.29631 -74.69371 5.88551 7.30408 3.29786 4.88844 -1.90047 3.02196 80.22318 -12.76042 72.87982 35.05793 49.47354 101.26102 -10.58629 -2.41247 -12.84738 19.53209 -35.44178 7.54391 6.09899 44.16037 -2.30532 1.04866 -0.03351 -0.03573 -11.64513 -12.22045 -5.35202 -26.28082 -32.49143 -13.77535 -12.48853 63.49341 25.64232 -21.30294 0.01315 -0.06921 22.77377 -37.15578 -0.20467 
48.22041 77.72685 -129.36707 2.45569 -7.57371 -21.16121 -10.21081 57.25558 8.29904 0.00808 -0.03078 -0.00098 -14.02821 -22.12692 11.75829 -0.87722 -5.03079 3.90104 -116.50311 -63.64833 -87.69138 -73.00452 58.37780 -73.76745 8.15040 4.95608 5.04974 6.00391 -3.63466 3.92731 79.18565 -12.57742 71.57507 34.47335 49.83051 103.09303 -6.19890 7.90388 -10.52892 21.88072 -37.17190 4.93769 0.65211 46.59034 3.99662 4.57244 -0.04021 -0.01640 -14.24059 -12.84431 -6.22327 -28.29746 -36.30222 -17.12704 -22.52433 69.40327 36.37188 -24.30536 0.01604 -0.05948 24.25472 -40.41499 -0.10050 
48.49026 75.05200 -130.58698 2.68275 -8.32186 -21.14679 -14.11653 60.18248 10.63813 0.00644 -0.02787 0.00028 -12.92546 -25.31029 12.77364 0.00303 -5.90542 4.75876 -110.48476 -62.48190 -78.07378 -66.55777 60.55964 -81.41708 6.00372 9.17977 1.72414 6.87758 -4.36327 4.87436 78.30607 -12.63525 70.70581 33.81961 50.00913 104.67472 -8.53111 2.29987 -9.91559 23.60043 -38.85128 2.41252 -4.88879 48.73320 10.19666 8.18648 -0.03090 -0.00074 -18.20316 -12.80842 -7.15831 -30.37377 -39.65697 -20.31849 -37.32174 73.70583 51.53109 -27.16540 0.01605 -0.04745 25.62107 -43.28958 -0.13152 
48.68926 72.40712 -131.58231 2.92409 -8.95773 -20.99225 -17.57450 62.02200 12.78343 0.00296 -0.01899 0.00051 -11.93291 -27.48693 13.93911 0.46361 -5.92350 5.34030 -106.78130 -61.32449 -72.57050 -61.81548 61.10403 -87.09274 7.32771 7.37827 3.07768 7.47557 -4.21530 5.75684 77.55959 -12.77617 70.06211 33.03253 50.20177 106.12441 -6.10753 7.98501 -8.27040 24.48613 -40.61023 -0.18909 -7.21126 50.52824 13.53673 9.96271 -0.00292 -0.00557 -21.63760 -13.11513 -7.34614 -32.45193 -42.53777 -23.32439 -56.53570 76.02907 70.83717 -29.82115 0.01424 -0.03624 26.87390 -45.79253 -0.29742 
48.82337 69.83397 -132.33751 3.16703 -9.46011 -20.68552 -20.42920 62.96954 14.57875 -0.00188 -0.00999 0.00148 -11.02493 -28.81915 15.14198 0.53994 -5.28612 5.72656 -104.38945 -60.14455 -69.51300 -58.59245 60.96660 -90.96095 5.88253 9.62878 1.28540 7.60276 -3.42128 6.66427 73.64055 -11.14332 66.86192 27.61529 47.76786 112.83960 -7.25807 4.55455 -7.76991 24.98873 -42.18657 -1.47227 -8.76560 52.40929 15.20981 12.24845 -0.00345 -0.00021 -25.53089 -13.54705 -7.54611 -34.41329 -44.60836 -24.96188 -73.62554 77.38348 87.84056 -32.24647 0.01152 -0.02785 28.03200 -47.98578 -0.60042 
48.92255 67.37815 -132.83942 3.41105 -9.82530 -20.22247 -22.64098 63.20397 15.97176 -0.00472 -0.00230 0.00220 -10.19326 -29.46126 16.28689 0.33291 -4.16329 5.96065 -102.81214 -58.83357 -67.96979 -56.37291 60.54142 -93.44772 6.61478 8.37664 1.97503 7.62185 -2.11020 7.55720 71.27500 -10.28717 65.18411 24.82597 45.96044 116.34675 -5.77457 7.73778 -6.21243 25.31405 -43.81112 -1.47835 -8.96879 54.59243 14.83264 14.60857 0.00203 0.00570 -29.40934 -14.37075 -7.64284 -36.03354 -46.00468 -25.19531 -87.81385 78.08685 101.77928 -30.13956 -0.01012 0.01941 25.27208 -49.98906 -1.12837 
49.02266 65.08453 -133.09412 3.66072 -10.06471 -19.60211 -24.23171 62.87579 16.95494 -0.00431 0.00167 -0.00056 -9.43848 -29.53424 17.31452 -0.04019 -2.67538 6.08246 -101.80319 -57.29908 -67.38342 -54.68456 60.08334 -95.04688 5.81870 9.61308 0.76346 1.66180 7.20915 15.66583 75.81419 -19.13290 70.61385 23.11128 45.05925 118.55212 -6.23591 5.73970 -5.73284 25.59560 -45.61897 -0.26036 -7.50783 57.18367 12.20903 16.87857 0.00663 0.00936 -33.36296 -15.28584 -7.72776 -37.29380 -46.84246 -24.11249 -100.51108 79.17307 114.13875 -27.93485 -0.01181 0.02286 22.52168 -51.91367 -1.77971 
49.14755 62.99997 -133.11298 3.91279 -10.19196 -18.82433 -25.32300 62.13850 17.65271 -0.00734 0.00940 0.00303 -8.76575 -29.18040 18.12168 -0.52318 -0.96571 6.17867 -101.06474 -55.43618 -67.30501 -53.26142 59.64252 -96.08920 6.32162 8.78603 0.97903 2.37742 8.13921 15.78141 74.33084 -18.30106 69.22821 22.28086 44.74360 119.62442 -5.48579 7.59602 -4.34305 25.88899 -47.62859 2.09103 -4.02527 60.07968 7.10781 19.03851 0.00986 0.01174 -37.18579 -16.36443 -7.78483 -38.34960 -47.35375 -21.97158 -115.85000 80.26895 129.12532 -25.36146 -0.01657 0.03278 19.57857 -54.02979 -2.70137 
